<svg id="Capa_1" enable-background="new 0 0 512 512" height="512" viewBox="0 0 512 512" width="512" xmlns="http://www.w3.org/2000/svg"><g><path d="m502 35.998h-492c-5.523 0-10 4.478-10 10s4.477 10 10 10h10v290c0 5.522 4.477 10 10 10h216v43.82l-114.472 57.236c-4.94 2.47-6.942 8.477-4.472 13.416 2.47 4.941 8.477 6.944 13.417 4.473l105.527-52.764v43.819c0 5.522 4.477 10 10 10s10-4.478 10-10v-43.819l105.528 52.764c4.941 2.47 10.947.467 13.417-4.473 2.47-4.939.468-10.946-4.472-13.416l-114.473-57.236v-43.82h216c5.523 0 10-4.478 10-10v-290h10c5.523 0 10-4.478 10-10s-4.477-10-10-10zm-30 300h-432v-280h432z"/><path d="m276 235.998h140c5.523 0 10-4.478 10-10s-4.477-10-10-10h-140c-5.523 0-10 4.478-10 10s4.477 10 10 10z"/><path d="m416 275.998h-320c-5.523 0-10 4.478-10 10s4.477 10 10 10h320c5.523 0 10-4.478 10-10s-4.477-10-10-10z"/><path d="m276 175.998h140c5.523 0 10-4.478 10-10s-4.477-10-10-10h-140c-5.523 0-10 4.478-10 10s4.477 10 10 10z"/><path d="m276 115.998h140c5.523 0 10-4.478 10-10s-4.477-10-10-10h-140c-5.523 0-10 4.478-10 10s4.477 10 10 10z"/><path d="m156 235.998c38.598 0 70-31.402 70-70s-31.402-70-70-70-70 31.402-70 70 31.402 70 70 70zm-10-118.994v48.994c0 5.522 4.477 10 10 9.99h48.994c-4.646 22.805-24.847 40.01-48.994 40.01-27.57 0-50-22.43-50-50 0-24.146 17.205-44.348 40-48.994z"/></g></svg>